# xmcd
#
# Track frame offsets:
#	150
#	14323
#	23591
#	36032
#	51334
#	65809
#	77316
#	88378
#	101373
#	113560
#	125246
#	137736
#	156659
#	168277
#	178550
#
# Disc length: 2514 seconds
#
# Revision: 0
# Processed by: cddbd v1.5.2PL0 Copyright (c) Steve Scherf et al.
# Submitted via: dBpowerAMP V4.0
#
DISCID=c409d00f
DTITLE=conwaytwiitty - conway twitty
DYEAR=1900
DGENRE=
TTITLE0=conway
TTITLE1=conway
TTITLE2=conway
TTITLE3=conway
TTITLE4=conway
TTITLE5=conway
TTITLE6=conway
TTITLE7=conway
TTITLE8=conway
TTITLE9=conway
TTITLE10=conway
TTITLE11=conway
TTITLE12=conway
TTITLE13=conway
TTITLE14=conway
EXTD=
EXTT0=
EXTT1=
EXTT2=
EXTT3=
EXTT4=
EXTT5=
EXTT6=
EXTT7=
EXTT8=
EXTT9=
EXTT10=
EXTT11=
EXTT12=
EXTT13=
EXTT14=
PLAYORDER=
